<?xml version="1.0" encoding="utf-8"?>
<!-- Generator: Adobe Illustrator 24.0.2, SVG Export Plug-In . SVG Version: 6.00 Build 0)  -->
<svg version="1.1" id="Layer_1" xmlns="http://www.w3.org/2000/svg" xmlns:xlink="http://www.w3.org/1999/xlink" x="0px" y="0px"
	 viewBox="0 0 60 60" style="enable-background:new 0 0 60 60;" xml:space="preserve">
<style type="text/css">
	.st0{fill:#CEE8FA;}
	.st1{fill:#2D527C;}
	.st2{fill:#CC9933;}
</style>
<g>
	<path class="st0" d="M36.5,44.4H10.2V31.9c0-4.5,3.6-8.1,8.1-8.1h18.2V44.4L36.5,44.4z"/>
	<g>
		<path class="st1" d="M36.5,46.1H10.2c-0.9,0-1.7-0.8-1.7-1.7V31.9c0-5.4,4.4-9.7,9.7-9.7h18.2c0.9,0,1.7,0.8,1.7,1.7v20.6
			C38.2,45.4,37.4,46.1,36.5,46.1z M11.8,42.8h22.9V25.5H18.2c-3.5,0-6.4,2.9-6.4,6.4V42.8z"/>
		<path class="st2" d="M53.8,31.1H6.2c-3.2,0-5.8-2.6-5.8-5.8v-5.2c0-3.2,2.6-5.8,5.8-5.8h12c0.9,0,1.7,0.8,1.7,1.7
			c0,0.9-0.8,1.7-1.7,1.7h-12c-1.3,0-2.4,1.1-2.4,2.4v5.2c0,1.3,1.1,2.4,2.4,2.4h47.6c1.3,0,2.4-1.1,2.4-2.4v-5.2
			c0-1.3-1.1-2.4-2.4-2.4H30c-0.9,0-1.7-0.8-1.7-1.7s0.8-1.7,1.7-1.7h23.8c3.2,0,5.8,2.6,5.8,5.8v5.2C59.6,28.5,57,31.1,53.8,31.1z"
			/>
		<path class="st2" d="M30,17.6c-0.5,0-1-0.2-1.4-0.7c-0.6-0.8-0.4-1.8,0.3-2.3c1.6-1.2,4.9-4.3,4.9-6.4c0-2.2-1.6-3.9-3.9-3.9
			c-2.1,0-3.9,1.7-3.9,3.9c0,0.9-0.8,1.7-1.7,1.7s-1.7-0.8-1.7-1.7V8c0,0,0-0.1,0-0.1C22.9,4,26.1,1,30,1c4.1,0,7.2,3.1,7.2,7.2
			c0,4.3-5.6,8.6-6.2,9.1C30.7,17.5,30.3,17.6,30,17.6z"/>
		<path class="st1" d="M42.4,55.4H20.2c-0.9,0-1.7-0.8-1.7-1.7v-9.2c0-0.9,0.8-1.7,1.7-1.7h29.7c0.9,0,1.7,0.8,1.7,1.7
			s-0.8,1.7-1.7,1.7h-28V52h20.6c0.9,0,1.7,0.8,1.7,1.7S43.3,55.4,42.4,55.4z"/>
	</g>
	<path class="st0" d="M49.8,44.4V30.5c0-3.7-3-6.7-6.7-6.7H20.2v20.6L49.8,44.4L49.8,44.4z"/>
	<g>
		<path class="st1" d="M49.8,46.1H20.2c-0.9,0-1.7-0.8-1.7-1.7V23.8c0-0.9,0.8-1.7,1.7-1.7h23c4.6,0,8.4,3.8,8.4,8.4v13.9
			C51.5,45.4,50.8,46.1,49.8,46.1z M21.8,42.8h26.3V30.5c0-2.8-2.3-5-5-5H21.8V42.8z"/>
		<path class="st1" d="M20.2,59c-0.9,0-1.7-0.8-1.7-1.7v-3.7c0-0.9,0.8-1.7,1.7-1.7s1.7,0.8,1.7,1.7v3.7C21.8,58.3,21.1,59,20.2,59z
			"/>
		<path class="st1" d="M49.8,59c-0.9,0-1.7-0.8-1.7-1.7v-14c0-0.9,0.8-1.7,1.7-1.7s1.7,0.8,1.7,1.7v14C51.5,58.3,50.8,59,49.8,59z"
			/>
		<path class="st1" d="M42.4,59c-0.9,0-1.7-0.8-1.7-1.7v-3.7c0-0.9,0.8-1.7,1.7-1.7s1.7,0.8,1.7,1.7v3.7C44.1,58.3,43.3,59,42.4,59z
			"/>
		<path class="st1" d="M35,59c-0.9,0-1.7-0.8-1.7-1.7v-3.7c0-0.9,0.8-1.7,1.7-1.7s1.7,0.8,1.7,1.7v3.7C36.7,58.3,35.9,59,35,59z"/>
		<path class="st1" d="M27.6,59c-0.9,0-1.7-0.8-1.7-1.7v-3.7c0-0.9,0.8-1.7,1.7-1.7s1.7,0.8,1.7,1.7v3.7C29.3,58.3,28.5,59,27.6,59z
			"/>
	</g>
</g>
</svg>
