<?xml version="1.0" encoding="utf-8"?>
<!-- Generator: Adobe Illustrator 24.0.2, SVG Export Plug-In . SVG Version: 6.00 Build 0)  -->
<svg version="1.1" id="Layer_1" xmlns="http://www.w3.org/2000/svg" xmlns:xlink="http://www.w3.org/1999/xlink" x="0px" y="0px"
	 viewBox="0 0 60 60" style="enable-background:new 0 0 60 60;" xml:space="preserve">
<style type="text/css">
	.st0{fill:#2D527C;}
	.st1{fill:#CC9933;}
	.st2{fill:#CEE8FA;}
</style>
<g>
	<g>
		<path class="st0" d="M34.9,17.1H17.7c-0.9,0-1.7-0.7-1.7-1.7c0-0.9,0.7-1.7,1.7-1.7h17.2c0.9,0,1.7,0.7,1.7,1.7
			C36.5,16.3,35.8,17.1,34.9,17.1z"/>
		<path class="st0" d="M21.4,44.7h-5.3c-8.5,0-15.5-7-15.5-15.5c0-5.7,3.1-10.9,8.1-13.6c0.8-0.4,1.8-0.1,2.3,0.7
			c0.4,0.8,0.1,1.8-0.7,2.3c-3.9,2.1-6.3,6.2-6.3,10.7c0,6.7,5.5,12.2,12.2,12.2h5.3c0.9,0,1.7,0.7,1.7,1.7
			C23,44,22.3,44.7,21.4,44.7z"/>
		<path class="st1" d="M22.8,56.9c-7.6,0-13.8-6.2-13.8-13.8c0-0.9,0.7-1.7,1.7-1.7s1.7,0.7,1.7,1.7c0,5.8,4.7,10.5,10.5,10.5
			s10.5-4.7,10.5-10.5c0-5.8-4.7-10.5-10.5-10.5c-2.9,0-5.6,1.2-7.6,3.3c-0.6,0.7-1.7,0.7-2.4,0.1c-0.7-0.6-0.7-1.7-0.1-2.4
			c2.6-2.8,6.2-4.3,10-4.3c7.6,0,13.8,6.2,13.8,13.8S30.4,56.9,22.8,56.9z"/>
		<path class="st1" d="M44.8,41.4H34.6c-0.9,0-1.7-0.7-1.7-1.7s0.7-1.7,1.7-1.7h10.2c0.9,0,1.7,0.7,1.7,1.7S45.7,41.4,44.8,41.4z"/>
		<path class="st1" d="M55.7,48.1H35c-0.9,0-1.7-0.7-1.7-1.7c0-0.9,0.7-1.7,1.7-1.7h20.7c0.2,0,0.4-0.2,0.4-0.4v-9.5
			c0-0.3-0.3-0.6-0.6-0.6h-1.4c-0.3,0-0.6,0.3-0.6,0.6v4.5c0,0.9-0.7,1.7-1.7,1.7s-1.7-0.7-1.7-1.7v-4.5c0-2.2,1.8-3.9,3.9-3.9h1.4
			c2.2,0,3.9,1.8,3.9,3.9v9.5C59.4,46.5,57.8,48.1,55.7,48.1z"/>
	</g>
	<circle class="st2" cx="22.8" cy="43" r="4.8"/>
	<path class="st1" d="M22.8,49.5c-3.5,0-6.4-2.9-6.4-6.4s2.9-6.4,6.4-6.4s6.4,2.9,6.4,6.4S26.3,49.5,22.8,49.5z M22.8,39.9
		c-1.7,0-3.1,1.4-3.1,3.1s1.4,3.1,3.1,3.1c1.7,0,3.1-1.4,3.1-3.1S24.5,39.9,22.8,39.9z"/>
	<path class="st2" d="M25.4,22.5V8.3c0-2,1.6-3.5,3.5-3.5h25.2c2,0,3.5,1.6,3.5,3.5v14.2c0,2-1.6,3.5-3.5,3.5H29
		C27,26,25.4,24.4,25.4,22.5z"/>
	<g>
		<path class="st0" d="M54.2,27.7H29c-2.9,0-5.2-2.3-5.2-5.2V8.3c0-2.9,2.3-5.2,5.2-5.2h25.2c2.9,0,5.2,2.3,5.2,5.2v14.2
			C59.4,25.4,57.1,27.7,54.2,27.7z M29,6.4c-1,0-1.9,0.8-1.9,1.9v14.2c0,1,0.8,1.9,1.9,1.9h25.2c1,0,1.9-0.8,1.9-1.9V8.3
			c0-1-0.8-1.9-1.9-1.9H29L29,6.4z"/>
		<path class="st0" d="M40.2,16.4h-0.6v-1c0-0.6-0.6-1-1.5-1s-1.5,0.4-1.5,1v1h-1l2.9-5.8c0-0.1,0.1-0.3,0.1-0.4
			c0-0.7-1-1.2-1.5-1.2c-0.6,0-1,0.3-1.3,0.8L32,17.5c-0.1,0.3-0.2,0.5-0.2,0.6c0,0.6,0.4,1.1,1,1.1h3.8v1.6c0,0.7,0.8,1,1.5,1
			c0.7,0,1.5-0.3,1.5-1v-1.6h0.6c0.5,0,1-0.7,1-1.4C41.2,17.1,40.9,16.4,40.2,16.4z"/>
		<path class="st0" d="M50.4,16.4h-0.6v-1c0-0.6-0.6-1-1.5-1s-1.5,0.4-1.5,1v1h-1l2.9-5.8c0-0.1,0.1-0.3,0.1-0.4
			c0-0.7-1-1.2-1.5-1.2c-0.6,0-1,0.3-1.3,0.8l-3.9,7.7C42,17.7,42,17.9,42,18.1c0,0.6,0.4,1.1,1,1.1h3.8v1.6c0,0.7,0.8,1,1.5,1
			s1.5-0.3,1.5-1v-1.6h0.6c0.5,0,1-0.7,1-1.4C51.4,17.1,51.1,16.4,50.4,16.4z"/>
	</g>
</g>
</svg>
