<?xml version="1.0" encoding="utf-8"?>
<!-- Generator: Adobe Illustrator 24.0.2, SVG Export Plug-In . SVG Version: 6.00 Build 0)  -->
<svg version="1.1" id="Layer_1" xmlns="http://www.w3.org/2000/svg" xmlns:xlink="http://www.w3.org/1999/xlink" x="0px" y="0px"
	 viewBox="0 0 60 60" style="enable-background:new 0 0 60 60;" xml:space="preserve">
<style type="text/css">
	.st0{fill:#2D527C;}
	.st1{fill:#CEE8FA;}
	.st2{fill:#CC9933;}
</style>
<g>
	<g>
		<path class="st0" d="M35.5,52.9H19.1c-8.3,0-15-6.7-15-15V23.6c0-0.9,0.8-1.7,1.7-1.7s1.7,0.8,1.7,1.7v14.3
			c0,6.4,5.2,11.7,11.7,11.7h16.4c0.9,0,1.7,0.8,1.7,1.7C37.2,52.2,36.5,52.9,35.5,52.9z"/>
		<path class="st0" d="M45.3,52.2c-0.7,0-1.3-0.4-1.6-1.1c-0.3-0.9,0.2-1.8,1-2.1c4.7-1.6,7.8-6.1,7.8-11v-1.7
			c0-0.9,0.8-1.7,1.7-1.7c0.9,0,1.7,0.8,1.7,1.7v1.7c0,6.4-4,12.1-10,14.2C45.7,52.1,45.5,52.2,45.3,52.2z"/>
	</g>
	<path class="st1" d="M54.7,29.2H5.3c-1.8,0-3.3-1.5-3.3-3.3l0,0c0-1.8,1.5-3.3,3.3-3.3h49.4c1.8,0,3.3,1.5,3.3,3.3l0,0
		C58.1,27.7,56.6,29.2,54.7,29.2z"/>
	<path class="st0" d="M54.7,30.8H5.3c-2.8,0-5-2.3-5-5s2.3-5,5-5h49.4c2.8,0,5,2.3,5,5S57.5,30.8,54.7,30.8z M5.3,24.1
		c-0.9,0-1.7,0.8-1.7,1.7s0.8,1.7,1.7,1.7h49.4c0.9,0,1.7-0.8,1.7-1.7s-0.8-1.7-1.7-1.7H5.3z"/>
	<circle class="st1" cx="13.5" cy="53.1" r="2.9"/>
	<path class="st0" d="M13.5,57.7c-2.5,0-4.6-2.1-4.6-4.6c0-2.5,2.1-4.6,4.6-4.6s4.6,2.1,4.6,4.6C18.1,55.7,16,57.7,13.5,57.7z
		 M13.5,51.9c-0.7,0-1.3,0.6-1.3,1.3c0,0.7,0.6,1.3,1.3,1.3c0.7,0,1.3-0.6,1.3-1.3C14.7,52.4,14.2,51.9,13.5,51.9z"/>
	<circle class="st1" cx="46.5" cy="53.1" r="2.9"/>
	<g>
		<path class="st0" d="M46.5,57.7c-2.5,0-4.6-2.1-4.6-4.6c0-2.5,2.1-4.6,4.6-4.6c2.5,0,4.6,2.1,4.6,4.6C51.1,55.7,49,57.7,46.5,57.7
			z M46.5,51.9c-0.7,0-1.3,0.6-1.3,1.3c0,0.7,0.6,1.3,1.3,1.3c0.7,0,1.3-0.6,1.3-1.3C47.8,52.4,47.2,51.9,46.5,51.9z"/>
		<path class="st2" d="M37.8,10.6H22.2c-0.9,0-1.7-0.8-1.7-1.7s0.8-1.7,1.7-1.7h15.7c0.9,0,1.7,0.8,1.7,1.7S38.8,10.6,37.8,10.6z"/>
		<path class="st2" d="M38.4,13.8c-0.9,0-1.7-0.8-1.7-1.7V3.9c0-0.9,0.8-1.7,1.7-1.7C39.3,2.3,40,3,40,3.9v8.2
			C40,13.1,39.3,13.8,38.4,13.8z"/>
		<path class="st2" d="M41.4,5.6h-6c-0.9,0-1.7-0.8-1.7-1.7s0.8-1.7,1.7-1.7h6c0.9,0,1.7,0.8,1.7,1.7S42.3,5.6,41.4,5.6z"/>
		<path class="st2" d="M21.6,13.8c-0.9,0-1.7-0.8-1.7-1.7V3.9c0-0.9,0.8-1.7,1.7-1.7s1.7,0.8,1.7,1.7v8.2
			C23.3,13.1,22.5,13.8,21.6,13.8z"/>
		<path class="st2" d="M24.6,5.6h-6c-0.9,0-1.7-0.8-1.7-1.7s0.8-1.7,1.7-1.7h6c0.9,0,1.7,0.8,1.7,1.7S25.6,5.6,24.6,5.6z"/>
		<path class="st2" d="M30,17.7c-0.9,0-1.7-0.8-1.7-1.7v-7c0-0.9,0.8-1.7,1.7-1.7c0.9,0,1.7,0.8,1.7,1.7v7
			C31.7,16.9,30.9,17.7,30,17.7z"/>
	</g>
	<path class="st1" d="M23,39.2h-9c-1.1,0-2.1-0.9-2.1-2.1V22.4H25v14.6C25,38.2,24.1,39.2,23,39.2z"/>
	<path class="st0" d="M23,40.8h-9c-2.1,0-3.7-1.7-3.7-3.7V22.5c0-0.9,0.8-1.7,1.7-1.7H25c0.9,0,1.7,0.8,1.7,1.7v14.6
		C26.7,39.2,25,40.8,23,40.8z M13.6,24.1v13c0,0.2,0.2,0.4,0.4,0.4h9c0.2,0,0.4-0.2,0.4-0.4v-13H13.6L13.6,24.1z"/>
</g>
</svg>
