<?xml version="1.0" encoding="utf-8"?>
<!-- Generator: Adobe Illustrator 24.0.2, SVG Export Plug-In . SVG Version: 6.00 Build 0)  -->
<svg version="1.1" id="Layer_1" xmlns="http://www.w3.org/2000/svg" xmlns:xlink="http://www.w3.org/1999/xlink" x="0px" y="0px"
	 viewBox="0 0 60 60" style="enable-background:new 0 0 60 60;" xml:space="preserve">
<style type="text/css">
	.st0{fill:#F0BF5F;}
	.st1{fill:#CC9933;}
	.st2{fill:#CEE8FA;}
	.st3{fill:#2D527C;}
</style>
<g>
	<g>
		<path class="st0" d="M14.5,54.4h-4c-0.9,0-1.6-0.7-1.6-1.6c0-0.9,0.7-1.6,1.6-1.6h4c0.9,0,1.6,0.7,1.6,1.6
			C16.1,53.7,15.3,54.4,14.5,54.4z"/>
		<path class="st1" d="M57.9,54.4h-4.2c-0.9,0-1.6-0.7-1.6-1.6c0-0.9,0.7-1.6,1.6-1.6h4.2c0.9,0,1.6,0.7,1.6,1.6
			C59.5,53.7,58.8,54.4,57.9,54.4z"/>
		<path class="st1" d="M56.2,54.2h-2.5c-0.9,0-1.6-0.7-1.6-1.6s0.7-1.6,1.6-1.6h0.9v-0.7c0-3.3-1.4-5.9-4-7.6
			c-1.9-1.3-4.4-1.9-7.1-1.9H20.1c-2.1,0-4,1.5-4.4,3.6L14.2,51h0.5c0.9,0,1.6,0.7,1.6,1.6s-0.7,1.6-1.6,1.6h-2.5
			c-0.5,0-0.9-0.2-1.2-0.6c-0.3-0.4-0.4-0.9-0.3-1.3l1.8-8.6c0.7-3.6,3.9-6.2,7.6-6.2h23.4c3.3,0,6.4,0.8,8.8,2.4
			c3.5,2.3,5.5,6,5.5,10.3v2.3C57.8,53.5,57.1,54.2,56.2,54.2z"/>
		<path class="st1" d="M38,54.2H25.8c-0.9,0-1.6-0.7-1.6-1.6s0.7-1.6,1.6-1.6H38c0.9,0,1.6,0.7,1.6,1.6S38.9,54.2,38,54.2z"/>
	</g>
	<path class="st2" d="M43.5,39.2c2.4,0,4.7,0.5,6.6,1.4l-2.2-9.7c-0.6-2.4-2.8-4-5.2-4H28.3c-2.2,0-4.2,1.3-5,3.3l-3.4,9H43.5
		L43.5,39.2z"/>
	<g>
		<path class="st1" d="M50.1,42.2c-0.2,0-0.5-0.1-0.7-0.2c-1.7-0.8-3.8-1.3-5.9-1.3H19.9c-0.5,0-1-0.3-1.3-0.7
			c-0.3-0.4-0.4-1-0.2-1.5l3.4-9c0,0,0,0,0-0.1c1.1-2.6,3.6-4.3,6.5-4.3h14.3c3.2,0,6,2.1,6.8,5.2c0,0,0,0,0,0l2.2,9.7
			c0.1,0.6-0.1,1.2-0.6,1.6C50.8,42.1,50.4,42.2,50.1,42.2z M22.3,37.6h21.2c1.5,0,3,0.2,4.4,0.5l-1.6-6.9c-0.4-1.7-2-2.8-3.7-2.8
			H28.3c-1.5,0-2.9,0.9-3.5,2.3L22.3,37.6z"/>
		<path class="st1" d="M38,47.5c-0.9,0-1.6-0.7-1.6-1.6V27.4c0-0.9,0.7-1.6,1.6-1.6c0.9,0,1.6,0.7,1.6,1.6v18.5
			C39.6,46.8,38.9,47.5,38,47.5z"/>
	</g>
	<path class="st3" d="M49.2,58.5c-3.5,0-6.4-2.8-6.4-6.4c0-3.5,2.8-6.4,6.4-6.4c3.5,0,6.4,2.8,6.4,6.4
		C55.6,55.7,52.7,58.5,49.2,58.5z M49.2,49c-1.7,0-3.1,1.4-3.1,3.1c0,1.7,1.4,3.1,3.1,3.1c1.7,0,3.1-1.4,3.1-3.1
		C52.4,50.4,50.9,49,49.2,49z"/>
	<g>
		<path class="st3" d="M19.1,58.5c-3.5,0-6.4-2.8-6.4-6.4c0-3.5,2.8-6.4,6.4-6.4s6.4,2.8,6.4,6.4C25.5,55.7,22.6,58.5,19.1,58.5z
			 M19.1,49c-1.7,0-3.1,1.4-3.1,3.1c0,1.7,1.4,3.1,3.1,3.1s3.1-1.4,3.1-3.1C22.3,50.4,20.9,49,19.1,49z"/>
		<path class="st3" d="M22.3,23.5H2.1c-0.9,0-1.6-0.7-1.6-1.6V3.1c0-0.9,0.7-1.6,1.6-1.6h20.2c0.9,0,1.6,0.7,1.6,1.6v18.8
			C23.9,22.8,23.2,23.5,22.3,23.5z M3.7,20.3h17V4.7h-17V20.3z"/>
		<path class="st3" d="M12.4,7h-3C8.8,7,8.3,7.4,8.3,7.9v9.2c0,0.6,0.6,0.9,1.4,0.9c0.8,0,1.4-0.4,1.4-0.9v-2.9h1.2
			c2.4,0,3.8-1.3,3.8-3.6v-0.1C16,8.2,14.7,7,12.4,7z M12.2,12h-1.2V9.4h1.2c0.7,0,1.1,0.4,1.1,1.2v0.2C13.3,11.6,13,12,12.2,12z"/>
		<path class="st3" d="M12.2,37c-0.9,0-1.6-0.7-1.6-1.6V22.1c0-0.9,0.7-1.6,1.6-1.6c0.9,0,1.6,0.7,1.6,1.6v13.3
			C13.8,36.3,13.1,37,12.2,37z"/>
	</g>
</g>
</svg>
