<?xml version="1.0" encoding="utf-8"?>
<!-- Generator: Adobe Illustrator 24.0.2, SVG Export Plug-In . SVG Version: 6.00 Build 0)  -->
<svg version="1.1" id="Layer_1" xmlns="http://www.w3.org/2000/svg" xmlns:xlink="http://www.w3.org/1999/xlink" x="0px" y="0px"
	 viewBox="0 0 60 60" style="enable-background:new 0 0 60 60;" xml:space="preserve">
<style type="text/css">
	.st0{fill:#2D527C;}
	.st1{fill:#CC9933;}
	.st2{fill:#CEE8FA;}
</style>
<g>
	<g>
		<path class="st0" d="M53.7,55.5H6.3c-3.1,0-5.7-2.6-5.7-5.7V10.2c0-3.2,2.6-5.7,5.7-5.7h31.2c0.9,0,1.6,0.7,1.6,1.6
			s-0.7,1.6-1.6,1.6H6.3c-1.4,0-2.5,1.1-2.5,2.5v39.5c0,1.4,1.1,2.5,2.5,2.5h47.5c1.4,0,2.5-1.1,2.5-2.5V10.2c0-1.4-1.1-2.5-2.5-2.5
			h-7c-0.9,0-1.6-0.7-1.6-1.6s0.7-1.6,1.6-1.6h7c3.2,0,5.7,2.6,5.7,5.7v39.5C59.4,52.9,56.9,55.5,53.7,55.5z"/>
		<path class="st0" d="M47.9,48.3H16.5c-0.9,0-1.6-0.7-1.6-1.6s0.7-1.6,1.6-1.6h31.4c0.6,0,1.1-0.5,1.1-1.1V16.1
			c0-0.6-0.5-1.1-1.1-1.1H16.5c-0.9,0-1.6-0.7-1.6-1.6c0-0.9,0.7-1.6,1.6-1.6h31.4c2.4,0,4.4,2,4.4,4.4V44
			C52.3,46.4,50.3,48.3,47.9,48.3z"/>
		<path class="st0" d="M9.3,48.3c-0.9,0-1.6-0.7-1.6-1.6V13.3c0-0.9,0.7-1.6,1.6-1.6c0.9,0,1.6,0.7,1.6,1.6v33.4
			C11,47.6,10.2,48.3,9.3,48.3z"/>
	</g>
	<path class="st1" d="M38.1,42.9c-7.1,0-12.9-5.8-12.9-12.9s5.8-12.9,12.9-12.9S51,22.9,51,30S45.2,42.9,38.1,42.9z M38.1,20.3
		c-5.3,0-9.7,4.3-9.7,9.7s4.3,9.7,9.7,9.7s9.7-4.3,9.7-9.7S43.4,20.3,38.1,20.3z M38.1,35.9c-3.2,0-5.9-2.6-5.9-5.9s2.6-5.9,5.9-5.9
		c3.2,0,5.9,2.6,5.9,5.9S41.3,35.9,38.1,35.9z M38.1,27.4c-1.4,0-2.6,1.2-2.6,2.6s1.2,2.6,2.6,2.6s2.6-1.2,2.6-2.6
		C40.7,28.6,39.5,27.4,38.1,27.4z"/>
	<rect x="9.3" y="36.1" class="st2" width="7.2" height="5.3"/>
	<path class="st0" d="M16.5,42.9H9.3c-0.9,0-1.6-0.7-1.6-1.6v-5.3c0-0.9,0.7-1.6,1.6-1.6h7.2c0.9,0,1.6,0.7,1.6,1.6v5.3
		C18.1,42.2,17.4,42.9,16.5,42.9z M11,39.7h3.9v-2H11V39.7z"/>
	<rect x="9.3" y="18.7" class="st2" width="7.2" height="5.3"/>
	<g>
		<path class="st0" d="M16.5,25.6H9.3c-0.9,0-1.6-0.7-1.6-1.6v-5.3c0-0.9,0.7-1.6,1.6-1.6h7.2c0.9,0,1.6,0.7,1.6,1.6v5.3
			C18.1,24.8,17.4,25.6,16.5,25.6z M11,22.3h3.9v-2H11V22.3z"/>
		<path class="st1" d="M30.4,39.3c-0.4,0-0.8-0.2-1.2-0.5c-0.6-0.6-0.6-1.7,0-2.3l4.6-4.6c0.6-0.6,1.7-0.6,2.3,0
			c0.6,0.6,0.6,1.7,0,2.3l-4.6,4.6C31.3,39.1,30.8,39.3,30.4,39.3z"/>
		<path class="st1" d="M41.4,28.3c-0.4,0-0.8-0.2-1.2-0.5c-0.6-0.6-0.6-1.7,0-2.3l4.3-4.3c0.6-0.6,1.7-0.6,2.3,0
			c0.6,0.6,0.6,1.7,0,2.3l-4.3,4.3C42.2,28.2,41.8,28.3,41.4,28.3z"/>
		<path class="st1" d="M34.7,28.3c-0.4,0-0.8-0.2-1.2-0.5l-4.3-4.3c-0.6-0.6-0.6-1.7,0-2.3c0.6-0.6,1.7-0.6,2.3,0l4.3,4.3
			c0.6,0.6,0.6,1.7,0,2.3C35.5,28.1,35.1,28.3,34.7,28.3z"/>
		<path class="st1" d="M45.7,39.3c-0.4,0-0.8-0.2-1.2-0.5l-4.3-4.3c-0.6-0.6-0.6-1.7,0-2.3c0.6-0.6,1.7-0.6,2.3,0l4.3,4.3
			c0.6,0.6,0.6,1.7,0,2.3C46.5,39.1,46.1,39.3,45.7,39.3z"/>
	</g>
</g>
</svg>
