<?xml version="1.0" encoding="utf-8"?>
<!-- Generator: Adobe Illustrator 24.0.2, SVG Export Plug-In . SVG Version: 6.00 Build 0)  -->
<svg version="1.1" id="Layer_1" xmlns="http://www.w3.org/2000/svg" xmlns:xlink="http://www.w3.org/1999/xlink" x="0px" y="0px"
	 viewBox="0 0 60 60" style="enable-background:new 0 0 60 60;" xml:space="preserve">
<style type="text/css">
	.st0{fill:#CC9933;}
	.st1{fill:#CEE8FA;}
	.st2{fill:#2D527C;}
</style>
<g>
	<g>
		<path class="st0" d="M50.3,45H9.7C8.7,45,8,44.2,8,43.3v-1.8c0-12.1,9.9-22,22-22c2.3,0,4.6,0.4,6.7,1c0.9,0.3,1.4,1.2,1.1,2.1
			c-0.3,0.9-1.2,1.4-2.1,1.1c-1.8-0.6-3.7-0.9-5.7-0.9c-10.3,0-18.6,8.4-18.6,18.6v0.1h37.3v-0.1c0-5-2-9.7-5.5-13.2
			c-0.7-0.7-0.7-1.7,0-2.4c0.7-0.7,1.7-0.7,2.4,0C49.7,30,52,35.6,52,41.5v1.8C52,44.2,51.3,45,50.3,45z"/>
		<path class="st0" d="M30,22.5c-0.9,0-1.7-0.7-1.7-1.7V16c0-0.9,0.7-1.7,1.7-1.7s1.7,0.7,1.7,1.7v4.8C31.7,21.7,30.9,22.5,30,22.5z
			"/>
		<path class="st0" d="M34.1,17.3h-8.3c-0.9,0-1.7-0.7-1.7-1.7s0.7-1.7,1.7-1.7h8.3c0.9,0,1.7,0.7,1.7,1.7
			C35.8,16.5,35.1,17.3,34.1,17.3z"/>
	</g>
	<rect x="15.2" y="43.3" class="st1" width="29.5" height="7.1"/>
	<path class="st0" d="M44.8,52.1H15.2c-0.9,0-1.7-0.7-1.7-1.7v-7.1c0-0.9,0.7-1.7,1.7-1.7h29.5c0.9,0,1.7,0.7,1.7,1.7v7.1
		C46.5,51.3,45.7,52.1,44.8,52.1z M16.9,48.7h26.2V45H16.9V48.7z"/>
	<path class="st1" d="M50.5,55.8h-41c-2,0-3.6-1.6-3.6-3.6l0,0c0-2,1.6-3.6,3.6-3.6h41c2,0,3.6,1.6,3.6,3.6l0,0
		C54.1,54.2,52.5,55.8,50.5,55.8z"/>
	<g>
		<path class="st2" d="M50.5,57.5h-41c-2.9,0-5.2-2.3-5.2-5.2c0-2.9,2.3-5.2,5.2-5.2h41c2.9,0,5.2,2.4,5.2,5.2
			C55.7,55.1,53.4,57.5,50.5,57.5z M9.5,50.4c-1,0-1.9,0.8-1.9,1.9c0,1,0.8,1.9,1.9,1.9h41c1,0,1.9-0.8,1.9-1.9c0-1-0.8-1.9-1.9-1.9
			H9.5z"/>
		<path class="st2" d="M30,9.2c-0.9,0-1.7-0.7-1.7-1.7V4.2c0-0.9,0.7-1.7,1.7-1.7s1.7,0.7,1.7,1.7v3.3C31.7,8.4,30.9,9.2,30,9.2z"/>
		<path class="st2" d="M57.8,32.1h-3.3c-0.9,0-1.7-0.7-1.7-1.7c0-0.9,0.7-1.7,1.7-1.7h3.3c0.9,0,1.7,0.7,1.7,1.7
			C59.5,31.3,58.8,32.1,57.8,32.1z"/>
		<path class="st2" d="M5.4,32.1H2.2c-0.9,0-1.7-0.7-1.7-1.7c0-0.9,0.7-1.7,1.7-1.7h3.3c0.9,0,1.7,0.7,1.7,1.7
			C7.1,31.3,6.4,32.1,5.4,32.1z"/>
		<path class="st2" d="M46.2,15.9c-0.4,0-0.9-0.2-1.2-0.5c-0.7-0.7-0.7-1.7,0-2.4l2.3-2.3c0.7-0.7,1.7-0.7,2.4,0
			c0.7,0.7,0.7,1.7,0,2.4l-2.3,2.3C47.1,15.7,46.6,15.9,46.2,15.9z"/>
		<path class="st2" d="M13.8,15.9c-0.4,0-0.9-0.2-1.2-0.5l-2.3-2.3c-0.7-0.7-0.7-1.7,0-2.4c0.7-0.7,1.7-0.7,2.4,0L15,13
			c0.7,0.7,0.7,1.7,0,2.4C14.7,15.7,14.3,15.9,13.8,15.9z"/>
	</g>
</g>
</svg>
