<?xml version="1.0" encoding="utf-8"?>
<!-- Generator: Adobe Illustrator 24.0.2, SVG Export Plug-In . SVG Version: 6.00 Build 0)  -->
<svg version="1.1" id="Layer_1" xmlns="http://www.w3.org/2000/svg" xmlns:xlink="http://www.w3.org/1999/xlink" x="0px" y="0px"
	 viewBox="0 0 60 60" style="enable-background:new 0 0 60 60;" xml:space="preserve">
<style type="text/css">
	.st0{fill:#2D527C;}
	.st1{fill:#CEE8FA;}
	.st2{fill:#CC9933;}
</style>
<g>
	<path class="st0" d="M54.1,55.1H46c-0.9,0-1.6-0.7-1.6-1.6S45.1,52,46,52h8.1c1.2,0,2.2-1,2.2-2.2V21.5c0-1.2-1-2.2-2.2-2.2H16.5
		c-1.2,0-2.2,1-2.2,2.2v28.3c0,1.2,1,2.2,2.2,2.2h21c0.9,0,1.6,0.7,1.6,1.6c0,0.9-0.7,1.6-1.6,1.6h-21c-2.9,0-5.3-2.4-5.3-5.3V21.5
		c0-2.9,2.4-5.3,5.3-5.3h37.6c2.9,0,5.3,2.4,5.3,5.3v28.3C59.4,52.8,57,55.1,54.1,55.1z"/>
	<path class="st1" d="M22.5,47.9L22.5,47.9c-1.5,0-2.7-1.2-2.7-2.7V26.2c0-1.5,1.2-2.7,2.7-2.7l0,0c1.5,0,2.7,1.2,2.7,2.7v18.9
		C25.2,46.7,24,47.9,22.5,47.9z"/>
	<path class="st2" d="M22.5,49.4c-2.4,0-4.3-1.9-4.3-4.3V26.2c0-2.4,1.9-4.3,4.3-4.3s4.3,1.9,4.3,4.3v18.9
		C26.8,47.5,24.9,49.4,22.5,49.4z M22.5,25.1c-0.6,0-1.2,0.5-1.2,1.2v18.9c0,0.6,0.5,1.2,1.2,1.2s1.2-0.5,1.2-1.2V26.2
		C23.7,25.6,23.1,25.1,22.5,25.1z"/>
	<path class="st1" d="M35.3,47.9L35.3,47.9c-1.5,0-2.7-1.2-2.7-2.7V26.2c0-1.5,1.2-2.7,2.7-2.7l0,0c1.5,0,2.7,1.2,2.7,2.7v18.9
		C38,46.7,36.8,47.9,35.3,47.9z"/>
	<path class="st2" d="M35.3,49.4c-2.4,0-4.3-1.9-4.3-4.3V26.2c0-2.4,1.9-4.3,4.3-4.3s4.3,1.9,4.3,4.3v18.9
		C39.5,47.5,37.6,49.4,35.3,49.4z M35.3,25.1c-0.6,0-1.2,0.5-1.2,1.2v18.9c0,0.6,0.5,1.2,1.2,1.2s1.2-0.5,1.2-1.2V26.2
		C36.4,25.6,35.9,25.1,35.3,25.1z"/>
	<path class="st1" d="M48,47.9L48,47.9c-1.5,0-2.7-1.2-2.7-2.7V26.2c0-1.5,1.2-2.7,2.7-2.7l0,0c1.5,0,2.7,1.2,2.7,2.7v18.9
		C50.7,46.7,49.5,47.9,48,47.9z"/>
	<g>
		<path class="st2" d="M48,49.4c-2.4,0-4.3-1.9-4.3-4.3V26.2c0-2.4,1.9-4.3,4.3-4.3s4.3,1.9,4.3,4.3v18.9
			C52.3,47.5,50.4,49.4,48,49.4z M48,25.1c-0.6,0-1.2,0.5-1.2,1.2v18.9c0,0.6,0.5,1.2,1.2,1.2s1.2-0.5,1.2-1.2V26.2
			C49.2,25.6,48.7,25.1,48,25.1z"/>
		<path class="st0" d="M12.7,27.1H7.3c-0.9,0-1.6-0.7-1.6-1.6c0-0.9,0.7-1.6,1.6-1.6h5.4c0.9,0,1.6,0.7,1.6,1.6
			C14.3,26.4,13.6,27.1,12.7,27.1z"/>
		<path class="st0" d="M12.7,47.4H7.3c-0.9,0-1.6-0.7-1.6-1.6s0.7-1.6,1.6-1.6h5.4c0.9,0,1.6,0.7,1.6,1.6S13.6,47.4,12.7,47.4z"/>
		<path class="st2" d="M6.1,29.5c-0.9,0-1.6-0.7-1.6-1.6V11.3c0-0.9,0.7-1.6,1.6-1.6s1.6,0.7,1.6,1.6v16.6
			C7.6,28.8,6.9,29.5,6.1,29.5z"/>
		<path class="st0" d="M6.1,55.1c-0.9,0-1.6-0.7-1.6-1.6V35.7c0-0.9,0.7-1.6,1.6-1.6s1.6,0.7,1.6,1.6v17.9
			C7.6,54.4,6.9,55.1,6.1,55.1z"/>
	</g>
	<rect x="2.2" y="6.4" class="st1" width="7.8" height="8.4"/>
	<path class="st0" d="M10,16.3H2.2c-0.9,0-1.6-0.7-1.6-1.6V6.4c0-0.9,0.7-1.6,1.6-1.6H10c0.9,0,1.6,0.7,1.6,1.6v8.4
		C11.5,15.6,10.8,16.3,10,16.3z M3.7,13.2h4.7V7.9H3.7V13.2z"/>
</g>
</svg>
