<?xml version="1.0" encoding="utf-8"?>
<!-- Generator: Adobe Illustrator 24.0.2, SVG Export Plug-In . SVG Version: 6.00 Build 0)  -->
<svg version="1.1" id="Layer_1" xmlns="http://www.w3.org/2000/svg" xmlns:xlink="http://www.w3.org/1999/xlink" x="0px" y="0px"
	 viewBox="0 0 60 60" style="enable-background:new 0 0 60 60;" xml:space="preserve">
<style type="text/css">
	.st0{fill:#CC9933;}
	.st1{fill:#CEE8FA;}
	.st2{fill:#2D527C;}
</style>
<g>
	<g>
		<path class="st0" d="M30.7,26.9c-0.9,0-1.7-0.7-1.7-1.7V6.4c0-3,2.6-5.4,5.7-5.4c3.2,0,5.7,2.4,5.7,5.4c0,0.9-0.7,1.7-1.7,1.7
			c-0.9,0-1.7-0.7-1.7-1.7c0-1.1-1.1-2.1-2.4-2.1s-2.4,0.9-2.4,2.1v18.8C32.4,26.2,31.6,26.9,30.7,26.9z"/>
		<path class="st0" d="M49.7,31.7c-0.9,0-1.7-0.7-1.7-1.7V6.4c0-3,2.6-5.4,5.7-5.4c3.2,0,5.7,2.4,5.7,5.4c0,0.9-0.7,1.7-1.7,1.7
			c-0.9,0-1.7-0.7-1.7-1.7c0-1.1-1.1-2.1-2.4-2.1s-2.4,0.9-2.4,2.1V30C51.4,31,50.7,31.7,49.7,31.7z"/>
		<path class="st0" d="M39.7,14.9h-9c-0.9,0-1.7-0.7-1.7-1.7c0-0.9,0.7-1.7,1.7-1.7h9c0.9,0,1.7,0.7,1.7,1.7
			C41.4,14.1,40.6,14.9,39.7,14.9z"/>
		<path class="st0" d="M39.7,26.9h-9c-0.9,0-1.7-0.7-1.7-1.7s0.7-1.7,1.7-1.7h9c0.9,0,1.7,0.7,1.7,1.7
			C41.3,26.2,40.6,26.9,39.7,26.9z"/>
		<path class="st0" d="M49.7,20.9h-9c-0.9,0-1.7-0.7-1.7-1.7c0-0.9,0.7-1.7,1.7-1.7h9c0.9,0,1.7,0.7,1.7,1.7
			C51.4,20.2,50.7,20.9,49.7,20.9z"/>
	</g>
	<path class="st1" d="M54.9,43.7c0,2-2.4,3.6-5.3,3.6c-2.9,0-5.3-1.6-5.3-3.6c0,2-2.4,3.6-5.3,3.6c-2.9,0-5.3-1.6-5.3-3.6h0.1
		c0,2-2.4,3.6-5.3,3.6s-5.3-1.6-5.3-3.6c0,2-2.4,3.6-5.3,3.6s-5.3-1.6-5.3-3.6h0.1c0,2-2.4,3.6-5.3,3.6s-5.3-1.6-5.3-3.6V33.6
		c0,2,2.4,3.6,5.3,3.6s5.3-1.6,5.3-3.6h-0.1c0,2,2.4,3.6,5.3,3.6s5.3-1.6,5.3-3.6c0,2,2.4,3.6,5.3,3.6s5.3-1.6,5.3-3.6h-0.1
		c0,2,2.4,3.6,5.3,3.6s5.3-1.6,5.3-3.6c0,2,2.4,3.6,5.3,3.6s5.3-1.6,5.3-3.6V43.7L54.9,43.7L54.9,43.7z"/>
	<g>
		<path class="st2" d="M49.6,49c-2.1,0-4-0.7-5.3-1.8C43,48.3,41.1,49,39,49c-2.1,0-4-0.7-5.2-1.8c-1.3,1.1-3.1,1.8-5.2,1.8
			c-2.1,0-4-0.7-5.3-1.8c-1.3,1.1-3.1,1.8-5.3,1.8c-2.1,0-4-0.7-5.2-1.8C11.4,48.3,9.5,49,7.4,49c-3.9,0-6.9-2.3-6.9-5.2V33.6
			c0-0.9,0.7-1.7,1.7-1.7s1.7,0.7,1.7,1.7c0,0.9,1.6,1.9,3.6,1.9c1.8,0,3.3-0.8,3.6-1.6c0-0.1,0-0.2,0-0.3c0-0.9,0.7-1.7,1.7-1.7
			h0.1c0.9,0,1.7,0.7,1.7,1.7c0,0.1,0,0.2,0,0.3c0.3,0.8,1.7,1.6,3.6,1.6c2,0,3.6-1,3.6-1.9c0-0.9,0.7-1.7,1.7-1.7s1.7,0.7,1.7,1.7
			c0,0.9,1.6,1.9,3.6,1.9c1.8,0,3.3-0.8,3.6-1.6c0-0.1,0-0.2,0-0.3c0-0.9,0.7-1.7,1.7-1.7h0.1c0.9,0,1.7,0.7,1.7,1.7
			c0,0.1,0,0.2,0,0.3c0.3,0.8,1.7,1.6,3.6,1.6c2,0,3.6-1,3.6-1.9c0-0.9,0.7-1.7,1.7-1.7c0.9,0,1.7,0.7,1.7,1.7
			c0,0.9,1.6,1.9,3.6,1.9c2,0,3.6-1,3.6-1.9c0-0.9,0.7-1.7,1.7-1.7c0.9,0,1.7,0.7,1.7,1.7v10.2C56.5,46.7,53.5,49,49.6,49z M46,43.7
			c0,0.9,1.6,1.9,3.6,1.9c2,0,3.6-1,3.6-1.9v-5.7c-1,0.5-2.3,0.7-3.6,0.7c-2.1,0-4-0.7-5.3-1.8c-1.3,1.1-3.1,1.8-5.3,1.8
			c-2.1,0-4-0.7-5.2-1.8c-1.3,1.1-3.1,1.8-5.2,1.8c-2.1,0-4-0.7-5.3-1.8c-1.3,1.1-3.1,1.8-5.3,1.8c-2.1,0-4-0.7-5.2-1.8
			c-1.3,1.1-3.1,1.8-5.2,1.8c-1.3,0-2.6-0.3-3.6-0.7v5.7c0,0.9,1.6,1.9,3.6,1.9c1.8,0,3.3-0.8,3.6-1.6c0-0.1,0-0.2,0-0.3
			c0-0.9,0.7-1.7,1.7-1.7h0.1c0.9,0,1.7,0.7,1.7,1.7c0,0.1,0,0.2,0,0.3c0.3,0.8,1.7,1.6,3.6,1.6c2,0,3.6-1,3.6-1.9
			c0-0.9,0.7-1.7,1.7-1.7s1.7,0.7,1.7,1.7c0,0.9,1.6,1.9,3.6,1.9c1.8,0,3.3-0.8,3.6-1.6c0-0.1,0-0.2,0-0.3c0-0.9,0.7-1.7,1.7-1.7
			h0.1c0.9,0,1.7,0.7,1.7,1.7c0,0.1,0,0.2,0,0.3c0.3,0.8,1.7,1.6,3.6,1.6c2,0,3.6-1,3.6-1.9c0-0.9,0.7-1.7,1.7-1.7
			C45.2,42.1,46,42.8,46,43.7z"/>
		<path class="st2" d="M39,59c-2.1,0-4-0.7-5.2-1.8c-1.3,1.1-3.1,1.8-5.2,1.8c-2.1,0-4-0.7-5.3-1.8c-1.3,1.1-3.1,1.8-5.3,1.8
			C14,59,11,56.6,11,53.7c0-0.9,0.7-1.7,1.7-1.7h0.1c0.9,0,1.7,0.7,1.7,1.7c0,0.1,0,0.2,0,0.3c0.3,0.8,1.8,1.6,3.6,1.6
			c2,0,3.6-1,3.6-1.9c0-0.9,0.7-1.7,1.7-1.7s1.7,0.7,1.7,1.7c0,0.9,1.6,1.9,3.6,1.9c1.8,0,3.3-0.8,3.6-1.6c0-0.1,0-0.2,0-0.3
			c0-0.9,0.7-1.7,1.7-1.7h0.1c0.9,0,1.7,0.7,1.7,1.7c0,0.1,0,0.2,0,0.3c0.3,0.8,1.8,1.6,3.6,1.6c2,0,3.6-1,3.6-1.9
			c0-0.9,0.7-1.7,1.7-1.7c0.9,0,1.7,0.7,1.7,1.7C46,56.7,42.9,59,39,59z"/>
	</g>
</g>
</svg>
