<svg width="24" height="24" viewBox="0 0 24 24" fill="none" xmlns="http://www.w3.org/2000/svg">
<g clip-path="url(#clip0)">
<path d="M23.4616 18.9671L19.7552 15.2603C19.0169 14.525 17.7944 14.5473 17.0304 15.3116L15.1631 17.1785C15.0451 17.1135 14.923 17.0456 14.7946 16.9735C13.6154 16.3201 12.0015 15.4246 10.3032 13.725C8.59984 12.0219 7.70349 10.4055 7.04812 9.22556C6.97896 9.10055 6.9127 8.98003 6.84727 8.86557L8.10051 7.61419L8.71665 6.99729C9.48179 6.23195 9.50288 5.00973 8.76636 4.27231L5.05994 0.565062C4.32341 -0.171327 3.1003 -0.148987 2.33516 0.616361L1.29056 1.66696L1.31911 1.69529C0.968842 2.14223 0.676148 2.6577 0.458334 3.21358C0.257551 3.7427 0.132544 4.24763 0.0753842 4.75358C-0.414025 8.81089 1.44005 12.519 6.47176 17.5508C13.4271 24.5056 19.0322 23.9802 19.274 23.9546C19.8007 23.8916 20.3054 23.7658 20.8183 23.5666C21.3694 23.3513 21.8845 23.059 22.3312 22.7095L22.354 22.7298L23.4122 21.6936C24.1758 20.9283 24.1978 19.7057 23.4616 18.9671Z" fill="#5186A6"/>
</g>
<defs>
<clipPath id="clip0">
<rect width="24" height="24" fill="white"/>
</clipPath>
</defs>
</svg>
